HIERARCHY
ROOT Hips
{
	OFFSET 0.00 0.00 0.00
	CHANNELS 6 Xposition Yposition Zposition Xrotation Yrotation Zrotation
	JOINT Spine
	{
		OFFSET 0.00000 1.72418 2.58627
		CHANNELS 3 Xrotation Yrotation Zrotation
		JOINT Spine1
		{
			OFFSET 0.00000 0.59880 3.39597
			CHANNELS 3 Xrotation Yrotation Zrotation
			JOINT Spine2
			{
				OFFSET 0.00000 0.30055 3.43524
				CHANNELS 3 Xrotation Yrotation Zrotation
				JOINT Spine3
				{
					OFFSET 0.00000 0.00000 3.44836
					CHANNELS 3 Xrotation Yrotation Zrotation
					JOINT Neck
					{
						OFFSET 0.00000 -1.29313 9.05195
						CHANNELS 3 Xrotation Yrotation Zrotation
						JOINT Head
						{
							OFFSET 0.00000 -0.82335 4.66946
							CHANNELS 3 Xrotation Yrotation Zrotation
							End Site
							{
								OFFSET 0.00000 0.00001 5.58203
							}
						}
					}
					JOINT RightShoulder
					{
						OFFSET -1.18828 -1.98046 6.41673
						CHANNELS 3 Xrotation Yrotation Zrotation
						JOINT RightArm
						{
							OFFSET -5.90180 0.00000 0.00000
							CHANNELS 3 Xrotation Yrotation Zrotation
							JOINT RightForeArm
							{
								OFFSET -11.45951 0.00000 0.00000
								CHANNELS 3 Xrotation Yrotation Zrotation
								JOINT RightHand
								{
									OFFSET -10.63451 0.00000 0.00000
									CHANNELS 3 Xrotation Yrotation Zrotation
									JOINT RightHandEnd
									{
										OFFSET -2.86944 0.00000 0.00000
										CHANNELS 3 Xrotation Yrotation Zrotation
										End Site
										{
											OFFSET -2.86944 0.00000 0.00000
										}
									}
									JOINT RightHandThumb1
									{
										OFFSET -1.14778 -1.91296 -0.76518
										CHANNELS 3 Yrotation Xrotation Zrotation
										End Site
										{
											OFFSET -2.77167 -0.74267 0.00000
										}
									}
								}
							}
						}
					}
					JOINT LeftShoulder
					{
						OFFSET 1.18828 -1.98046 6.41673
						CHANNELS 3 Xrotation Yrotation Zrotation
						JOINT LeftArm
						{
							OFFSET 5.90180 0.00000 0.00000
							CHANNELS 3 Xrotation Yrotation Zrotation
							JOINT LeftForeArm
							{
								OFFSET 11.45951 0.00000 0.00000
								CHANNELS 3 Xrotation Yrotation Zrotation
								JOINT LeftHand
								{
									OFFSET 10.63451 0.00000 0.00000
									CHANNELS 3 Xrotation Yrotation Zrotation
									JOINT LeftHandEnd
									{
										OFFSET 2.86944 0.00000 0.00000
										CHANNELS 3 Xrotation Yrotation Zrotation
										End Site
										{
											OFFSET 2.86944 0.00000 0.00000
										}
									}
									JOINT LeftHandThumb1
									{
										OFFSET 1.14778 -1.91296 -0.76518
										CHANNELS 3 Yrotation Xrotation Zrotation
										End Site
										{
											OFFSET 2.77167 -0.74267 0.00000
										}
									}
								}
							}
						}
					}
				}
			}
		}
	}
	JOINT RightUpLeg
	{
		OFFSET -3.52524 0.00000 -1.02984
		CHANNELS 3 Xrotation Yrotation Zrotation
		JOINT RightLeg
		{
			OFFSET 0.00001 0.00000 -17.80965
			CHANNELS 3 Xrotation Yrotation Zrotation
			JOINT RightFoot
			{
				OFFSET 0.00001 0.00000 -17.00908
				CHANNELS 3 Xrotation Yrotation Zrotation
				JOINT RightToeBase
				{
					OFFSET 0.00000 -5.55853 -2.02314
					CHANNELS 3 Xrotation Yrotation Zrotation
					End Site
					{
						OFFSET 0.00000 -2.85188 -0.00000
					}
				}
			}
		}
	}
	JOINT LeftUpLeg
	{
		OFFSET 3.52524 0.00000 -1.02984
		CHANNELS 3 Xrotation Yrotation Zrotation
		JOINT LeftLeg
		{
			OFFSET 0.00001 0.00000 -17.80965
			CHANNELS 3 Xrotation Yrotation Zrotation
			JOINT LeftFoot
			{
				OFFSET 0.00001 0.00000 -17.00908
				CHANNELS 3 Xrotation Yrotation Zrotation
				JOINT LeftToeBase
				{
					OFFSET 0.00000 -5.55853 -2.02314
					CHANNELS 3 Xrotation Yrotation Zrotation
					End Site
					{
						OFFSET 0.00000 -2.85188 -0.00000
					}
				}
			}
		}
	}
}
MOTION
Frames: 12
Frame Time: 0.008342
 -0.9534 -5.3704 36.9359 4.7124 6.9564 -170.1762 3.5951 6.1186 -2.9208 1.5696 0.1292 -0.1461 -2.2387 -1.7279 -3.0856 0.1802 -0.2728 0.4616 10.2769 -0.6052 9.9809 4.0178 3.9333 33.0582 0.3685 12.0331 -14.1389 -67.3224 -2.1336 -15.3597 -0.0001 0.0001 137.8283 10.0952 47.7304 16.1051 0.0000 0.0000 -0.0000 -0.0000 -0.0000 0.0000 -6.8786 -13.1599 -3.3818 -84.8941 -0.0671 16.2930 -0.0001 -0.0000 -126.7821 -1.7453 -45.8227 -28.7981 -0.0000 0.0000 0.0000 -0.0000 0.0000 0.0000 -27.6242 12.9908 -26.4119 23.7931 0.0000 0.0000 -9.7706 -2.8463 -2.7244 -9.7663 0.0000 -0.0000 7.4029 8.2093 8.8021 20.6265 0.0000 0.0000 -18.8837 5.7649 -4.9087 1.9814 0.0000 0.0000
 -0.9525 -5.1067 36.9045 4.6311 7.0364 -169.9033 3.5906 6.2146 -3.0039 1.5771 0.1208 -0.1512 -2.2751 -1.7363 -3.1801 0.2004 -0.2733 0.4476 10.4220 -0.6054 10.0220 4.0187 3.9794 33.1821 0.3174 12.2939 -14.2243 -67.1864 -2.0938 -15.2936 -0.0001 0.0001 138.5015 9.9319 48.1601 16.6772 0.0000 -0.0000 0.0000 -0.0000 -0.0000 0.0000 -7.0606 -13.3143 -3.4191 -85.0233 -0.0473 16.0925 -0.0001 -0.0000 -127.0180 -2.3471 -45.6183 -29.0310 -0.0000 -0.0000 0.0000 0.0000 -0.0000 -0.0000 -27.7241 13.0313 -27.6244 22.4660 0.0000 0.0000 -9.1105 -3.2028 -1.8605 -9.7073 0.0000 -0.0000 7.9440 8.2857 8.4830 20.3050 0.0000 0.0000 -19.0277 5.2159 -4.7550 1.5282 0.0000 0.0000
 -0.9510 -4.8428 36.8700 4.5449 7.1114 -169.6381 3.5831 6.2987 -3.0824 1.5817 0.1130 -0.1563 -2.3044 -1.7414 -3.2676 0.2227 -0.2731 0.4332 10.5495 -0.5985 10.0628 4.0208 4.0213 33.2993 0.3083 12.5104 -14.3045 -67.0568 -2.0621 -15.2823 -0.0001 0.0001 139.0607 9.8297 48.4953 17.1762 0.0000 0.0000 -0.0000 0.0000 0.0000 -0.0000 -7.1961 -13.4190 -3.4462 -85.1182 -0.0324 15.9454 -0.0001 -0.0000 -127.1934 -2.9280 -45.2545 -29.1591 -0.0000 0.0000 -0.0000 0.0000 -0.0000 -0.0000 -27.8197 13.0561 -28.8228 21.1984 0.0000 0.0000 -8.4809 -3.5390 -0.9925 -9.6640 0.0000 -0.0000 8.4608 8.3575 8.1636 20.0230 0.0000 0.0000 -19.1857 4.6567 -4.5688 1.0587 0.0000 0.0000
 -0.9488 -4.5786 36.8326 4.4554 7.1830 -169.3814 3.5746 6.3749 -3.1558 1.5853 0.1044 -0.1617 -2.3271 -1.7444 -3.3474 0.2459 -0.2716 0.4188 10.6590 -0.5851 10.1008 4.0238 4.0576 33.4089 0.3343 12.6794 -14.3801 -66.9403 -2.0338 -15.3270 -0.0001 0.0001 139.4973 9.8109 48.7083 17.5595 0.0000 0.0000 0.0000 0.0000 0.0000 0.0000 -7.2857 -13.4735 -3.4638 -85.1815 -0.0222 15.8510 -0.0001 -0.0000 -127.2910 -3.4860 -44.7665 -29.1981 0.0000 -0.0000 0.0000 0.0000 -0.0000 -0.0000 -27.9081 13.0665 -29.9967 19.9922 0.0000 0.0000 -7.8877 -3.8637 -0.1118 -9.6553 0.0000 -0.0000 8.9544 8.4228 7.8533 19.7814 0.0000 0.0000 -19.3543 4.1093 -4.3605 0.5851 0.0000 0.0000
 -0.9455 -4.3141 36.7926 4.3639 7.2553 -169.1335 3.5683 6.4491 -3.2234 1.5883 0.0966 -0.1660 -2.3439 -1.7504 -3.4215 0.2687 -0.2667 0.4050 10.7505 -0.5675 10.1351 4.0278 4.0865 33.5103 0.3873 12.7936 -14.4506 -66.8396 -2.0046 -15.4211 -0.0001 0.0001 139.7974 9.8724 48.7999 17.8099 0.0000 0.0000 -0.0000 0.0000 0.0000 -0.0000 -7.3328 -13.4763 -3.4722 -85.2128 -0.0146 15.8042 -0.0001 -0.0000 -127.2920 -4.0342 -44.2046 -29.1839 -0.0000 -0.0000 -0.0000 -0.0000 -0.0000 0.0000 -27.9869 13.0659 -31.1347 18.8493 0.0000 0.0000 -7.3311 -4.1802 0.7877 -9.6986 0.0000 -0.0000 9.4272 8.4822 7.5587 19.5785 0.0000 0.0000 -19.5286 3.5957 -4.1418 0.1202 0.0000 0.0000
 -0.9410 -4.0492 36.7505 4.2684 7.3295 -168.8936 3.5633 6.5239 -3.2841 1.5906 0.0880 -0.1702 -2.3545 -1.7566 -3.4891 0.2908 -0.2590 0.3920 10.8236 -0.5488 10.1642 4.0327 4.1072 33.6025 0.4529 12.8435 -14.5159 -66.7482 -1.9702 -15.5514 -0.0001 0.0001 139.9438 9.9861 48.7954 17.9401 0.0000 -0.0000 -0.0000 0.0000 -0.0000 -0.0000 -7.3424 -13.4245 -3.4733 -85.2107 -0.0062 15.7961 -0.0001 -0.0000 -127.1780 -4.5880 -43.6295 -29.1618 0.0000 -0.0000 0.0000 0.0000 -0.0000 -0.0000 -28.0568 13.0562 -32.2286 17.7703 0.0000 0.0000 -6.8051 -4.4860 1.7084 -9.8072 0.0000 -0.0000 9.8780 8.5333 7.2844 19.4131 0.0000 0.0000 -19.7053 3.1358 -3.9265 -0.3233 0.0000 -0.0000
 -0.9353 -3.7841 36.7068 4.1684 7.4084 -168.6603 3.5603 6.6008 -3.3362 1.5923 0.0829 -0.1735 -2.3596 -1.7651 -3.5529 0.3115 -0.2491 0.3798 10.8801 -0.5310 10.1874 4.0371 4.1186 33.6841 0.5185 12.8214 -14.5755 -66.6563 -1.9276 -15.7037 -0.0001 0.0001 139.9197 10.1100 48.7424 17.9842 0.0000 -0.0000 0.0000 -0.0000 0.0000 0.0000 -7.3201 -13.3143 -3.4703 -85.1736 0.0060 15.8160 -0.0001 -0.0000 -126.9330 -5.1685 -43.0979 -29.1843 0.0000 0.0000 -0.0000 0.0000 -0.0000 0.0000 -28.1178 13.0412 -33.2709 16.7555 0.0000 0.0000 -6.3015 -4.7723 2.6483 -9.9869 0.0000 -0.0000 10.3086 8.5757 7.0303 19.2817 0.0000 0.0000 -19.8798 2.7458 -3.7275 -0.7354 0.0000 -0.0000
 -0.9280 -3.5187 36.6619 4.0609 7.4931 -168.4316 3.5574 6.6833 -3.3783 1.5933 0.0782 -0.1768 -2.3586 -1.7727 -3.6124 0.3300 -0.2376 0.3679 10.9220 -0.5182 10.2040 4.0399 4.1215 33.7547 0.5718 12.7174 -14.6287 -66.5529 -1.8732 -15.8593 -0.0001 0.0001 139.7098 10.1897 48.6985 17.9947 0.0000 -0.0000 0.0000 -0.0000 -0.0000 0.0000 -7.2716 -13.1437 -3.4664 -85.1008 0.0263 15.8531 -0.0001 -0.0000 -126.5461 -5.7872 -42.6586 -29.2947 -0.0000 -0.0000 -0.0000 -0.0000 0.0000 0.0000 -28.1725 13.0237 -34.2557 15.8056 0.0000 0.0000 -5.8108 -5.0244 3.5994 -10.2350 0.0000 -0.0000 10.7178 8.6075 6.7939 19.1816 0.0000 0.0000 -20.0489 2.4364 -3.5562 -1.1084 0.0000 -0.0000
 -0.9192 -3.2530 36.6162 3.9405 7.5874 -168.2058 3.5510 6.7769 -3.4089 1.5931 0.0733 -0.1791 -2.3521 -1.7779 -3.6689 0.3464 -0.2260 0.3551 10.9509 -0.5121 10.2142 4.0396 4.1167 33.8138 0.6017 12.5297 -14.6740 -66.4248 -1.8073 -16.0063 -0.0001 0.0001 139.3051 10.1772 48.7243 18.0228 0.0000 -0.0000 0.0000 -0.0000 0.0000 0.0000 -7.2039 -12.9118 -3.4661 -84.9941 0.0555 15.9000 -0.0001 -0.0000 -126.0115 -6.4521 -42.3408 -29.5267 0.0000 -0.0000 0.0000 -0.0000 0.0000 0.0000 -28.2290 13.0104 -35.1666 14.9236 0.0000 0.0000 -5.3274 -5.2263 4.5402 -10.5401 0.0000 -0.0000 11.1029 8.6324 6.5671 19.1087 0.0000 0.0000 -20.2077 2.2121 -3.4193 -1.4407 0.0000 -0.0000
 -0.9091 -2.9867 36.5703 3.8134 7.6881 -167.9813 3.5474 6.8744 -3.4292 1.5908 0.0752 -0.1803 -2.3407 -1.7875 -3.7248 0.3604 -0.2118 0.3429 10.9693 -0.5136 10.2192 4.0354 4.1041 33.8619 0.6069 12.2590 -14.7118 -66.2691 -1.7327 -16.1371 -0.0001 0.0001 138.7022 10.0295 48.8667 18.1181 0.0000 0.0000 -0.0000 0.0000 0.0000 0.0000 -7.1218 -12.6197 -3.4725 -84.8567 0.0941 15.9502 -0.0001 -0.0000 -125.3287 -7.1593 -42.1544 -29.8912 0.0000 0.0000 -0.0000 0.0000 0.0000 -0.0000 -28.2804 13.0007 -36.0050 14.1119 0.0000 0.0000 -4.8485 -5.3625 5.4556 -10.8803 0.0000 -0.0000 11.4726 8.6441 6.3453 19.0590 0.0000 0.0000 -20.3536 2.0720 -3.3253 -1.7353 0.0000 -0.0000
 -0.8978 -2.7192 36.5245 3.6823 7.7950 -167.7575 3.5476 6.9738 -3.4369 1.5888 0.0807 -0.1815 -2.3255 -1.7949 -3.7800 0.3721 -0.1978 0.3304 10.9782 -0.5244 10.2198 4.0269 4.0871 33.8988 0.5852 11.9144 -14.7432 -66.0810 -1.6554 -16.2537 -0.0001 0.0001 137.9066 9.7174 49.1570 18.3156 -0.0000 -0.0000 -0.0000 -0.0000 -0.0000 0.0000 -7.0326 -12.2746 -3.4919 -84.6930 0.1389 16.0079 -0.0001 -0.0000 -124.5030 -7.9005 -42.0831 -30.3813 -0.0000 -0.0000 0.0000 0.0000 -0.0000 -0.0000 -28.3257 12.9968 -36.7571 13.3760 0.0000 0.0000 -4.3791 -5.4227 6.3147 -11.2283 0.0000 -0.0000 11.8330 8.6419 6.1213 19.0271 0.0000 0.0000 -20.4816 2.0097 -3.2769 -2.0008 0.0000 -0.0000
 -0.8857 -2.4514 36.4789 3.5294 7.9147 -167.5323 3.5418 7.0906 -3.4347 1.5793 0.0885 -0.1820 -2.3038 -1.8091 -3.8333 0.3814 -0.1836 0.3156 10.9776 -0.5382 10.2178 4.0132 4.0653 33.9265 0.5392 11.5121 -14.7651 -65.8668 -1.5783 -16.3671 -0.0001 0.0001 136.9308 9.2322 49.5978 18.6265 -0.0000 0.0000 -0.0000 0.0000 -0.0000 -0.0000 -6.9379 -11.8788 -3.5214 -84.5114 0.1905 16.0763 -0.0001 -0.0000 -123.5418 -8.6557 -42.0863 -30.9649 0.0000 -0.0000 0.0000 -0.0000 -0.0000 0.0000 -28.3907 13.0124 -37.3815 12.7298 0.0000 0.0000 -3.9318 -5.4037 7.0659 -11.5517 0.0000 -0.0000 12.1660 8.6396 5.8780 19.0134 0.0000 0.0000 -20.5859 2.0121 -3.2637 -2.2523 0.0000 -0.0000
